<?xml version="1.0" encoding="utf-8"?>
<!-- Generator: Adobe Illustrator 27.5.0, SVG Export Plug-In . SVG Version: 6.00 Build 0)  -->
<svg version="1.1" id="Слой_1" xmlns="http://www.w3.org/2000/svg" xmlns:xlink="http://www.w3.org/1999/xlink" x="0px" y="0px"
	 viewBox="0 0 708.66 708.66" enable-background="new 0 0 708.66 708.66" xml:space="preserve">
<g>
	<path d="M354.44,598.44c-49.91,0-99.82,0.22-149.73-0.07c-38.1-0.23-66.27-17.6-84.22-51.16c-7.03-13.14-9.73-27.44-9.72-42.34
		c0.05-90.03,0.02-180.07,0.03-270.1c0-11.57-0.41-23.16,0.15-34.7c1.71-35.26,18.43-61.44,49.13-78.6
		c13.45-7.52,28.13-10.69,43.55-10.69c100.31,0.03,200.61,0.16,300.92-0.05c45.13-0.1,84.59,32.57,92.51,78.12
		c0.91,5.23,1.32,10.61,1.33,15.93c0.08,100.06,0.07,200.13,0.05,300.19c-0.01,44.04-28.78,80.96-71.2,90.92
		c-7.25,1.7-14.87,2.35-22.34,2.44c-25.07,0.29-50.15,0.11-75.23,0.11S379.51,598.44,354.44,598.44z M354.82,141.86
		c-50.15,0-100.3-0.02-150.46,0.03c-3.87,0-7.8,0.12-11.59,0.82c-30.15,5.52-50.87,30.22-50.89,60.77
		c-0.05,100.3-0.04,200.61,0.04,300.91c0,4.58,0.35,9.26,1.34,13.71c6.4,28.78,30.81,48.18,60.58,48.19
		c100.14,0.04,200.29,0.03,300.43-0.04c4.66,0,9.4-0.43,13.95-1.38c14.49-3.03,26.08-10.77,35.36-22.27
		c9.38-11.63,11.97-25.52,13.8-39.72c0-99.82,0-199.64,0-299.46c0-15.24-4.77-28.8-14.82-40.27c-12.47-14.24-28.3-21.31-47.28-21.3
		C455.12,141.88,404.97,141.86,354.82,141.86z"/>
	<path d="M481.8,181.22c21.94,0.02,40.53,14.93,45.26,36.3c0.62,2.82,0.9,5.77,0.9,8.65c0.05,60.58,0.06,121.16,0.02,181.74
		c-0.01,22.21-13.59,39.67-34.58,44.42c-3.52,0.8-7.2,1.07-10.82,1.13c-9.62,0.15-19.25,0.05-28.87,0.05
		c-9.06,0.01-14.65,5.62-14.73,14.62c-0.06,6.79,0.13,13.61-0.5,20.35c-1.77,18.81-17.79,35.25-36.54,37.86
		c-2.71,0.38-5.47,0.58-8.21,0.58c-26.21,0.04-52.41,0.08-78.62,0.01c-22.63-0.06-40.46-14.83-44.18-37.12
		c-1.11-6.63-0.55-13.54-0.77-20.32c-0.06-1.77,0.05-3.59-0.32-5.31c-1.36-6.29-6.76-10.62-13.27-10.66
		c-10.35-0.06-20.71,0.06-31.06-0.04c-21.6-0.21-39.23-14.7-43.48-35.8c-0.62-3.07-0.81-6.26-0.81-9.4
		c-0.04-60.66-0.05-121.32-0.02-181.99c0.01-22.25,14.21-39.88,35.68-44.24c3.3-0.67,6.74-0.83,10.12-0.83
		C269.41,181.19,439.26,181.18,481.8,181.22z M493.88,406.39c-0.01-59.7-0.09-120.42,0.09-180.11c0.02-8.07-5.82-15.16-15.14-15.14
		c-84.21,0.15-168.42,0.09-252.62,0.09c-9.43,0-14.97,5.49-14.97,14.85c-0.01,60.1,0.08,120.2-0.09,180.31
		c-0.02,8.79,6.42,15.33,15.19,15.1c10.35-0.27,20.71-0.24,31.06,0.02c23.78,0.6,42.6,19.89,42.82,43.67
		c0.05,5.42-0.05,10.84,0.04,16.26c0.12,7.35,5.99,13.39,13.26,13.41c26.69,0.07,53.39,0.06,80.08,0
		c6.39-0.01,11.9-4.65,12.96-10.97c0.47-2.76,0.27-5.63,0.39-8.46c0.26-6.05-0.2-12.23,0.92-18.12
		c4.04-21.29,21.6-35.61,43.31-35.84c10.19-0.11,20.38,0.02,30.58-0.04C492.08,421.42,493.88,412.33,493.88,406.39z"/>
	<path d="M282.52,322.92c-10.29,0-20.45,0-30.76,0c0-23.03,0-45.96,0-69.09c10.17,0,20.38,0,30.76,0
		C282.52,276.77,282.52,299.7,282.52,322.92z"/>
	<path d="M309.64,322.87c0-23.05,0-45.98,0-69.07c10.24,0,20.38,0,30.74,0c0,22.95,0,45.93,0,69.07
		C330.19,322.87,319.98,322.87,309.64,322.87z"/>
	<path d="M398.45,322.96c-10.28,0-20.37,0-30.67,0c0-23.05,0-46.03,0-69.18c10.15,0,20.31,0,30.67,0
		C398.45,276.74,398.45,299.73,398.45,322.96z"/>
	<path d="M425.62,322.86c0-23.03,0-45.96,0-69.06c10.27,0,20.48,0,30.82,0c0,23.03,0,45.96,0,69.06
		C446.18,322.86,435.97,322.86,425.62,322.86z"/>
</g>
</svg>
